<?xml version="1.0" encoding="UTF-8"?>
<svg id="Layer_1" xmlns="http://www.w3.org/2000/svg" version="1.1" viewBox="0 0 140 140">
  <!-- Generator: Adobe Illustrator 30.4.0, SVG Export Plug-In . SVG Version: 2.1.4 Build 226)  -->
  <defs>
    <style>
      .st0 {
        fill: #fff;
      }
    </style>
  </defs>
  <rect class="st0" width="140" height="140" rx="32.6" ry="32.6"/>
  <g>
    <g>
      <path d="M23.4,66.5l-2.4,2.5v4.5h-4.1v-17.8h4.1v8.3l7.9-8.3h4.6l-7.4,7.9,7.8,9.9h-4.8l-5.7-7Z"/>
      <path d="M33.9,64.6c0-5.3,4.1-9.2,9.7-9.2s9.7,3.9,9.7,9.2-4.1,9.2-9.7,9.2-9.7-3.9-9.7-9.2ZM49.2,64.6c0-3.4-2.4-5.7-5.6-5.7s-5.6,2.3-5.6,5.7,2.4,5.7,5.6,5.7,5.6-2.3,5.6-5.7Z"/>
      <path d="M83,55.7v10.5c0,5-2.8,7.6-7.7,7.6s-4.4-.8-5.6-2c-1.2,1.2-3.1,2-5.6,2-4.9,0-7.7-2.6-7.7-7.6v-10.5h4.1v10.4c0,2.9,1.2,4.2,3.5,4.2s3.6-1.3,3.6-4.2v-10.4h4.1v10.4c0,2.9,1.3,4.2,3.6,4.2s3.5-1.3,3.5-4.2v-10.4h4.1Z"/>
      <path d="M103.2,63.8v9.7h-4.1v-4.3h-8.1v4.3h-4.1v-9.7c0-5.4,3.3-8.4,8.2-8.4s8.2,2.9,8.2,8.4ZM99.1,65.9v-2.5c0-3-1.6-4.5-4.1-4.5s-4.1,1.4-4.1,4.5v2.5h8.1Z"/>
      <path d="M106.1,64.6c0-5.4,4.1-9.2,9.7-9.2s5.6,1.1,7.3,3.2l-2.6,2.4c-1.2-1.4-2.7-2.1-4.5-2.1-3.3,0-5.7,2.3-5.7,5.7s2.4,5.7,5.7,5.7,3.3-.7,4.5-2.1l2.6,2.4c-1.7,2.1-4.2,3.2-7.3,3.2-5.5,0-9.6-3.8-9.6-9.2Z"/>
    </g>
    <g>
      <path d="M59.9,75.8v8.6h-2v-7h-1.7v-1.6h3.7Z"/>
      <path d="M68.3,79.9c0,3-1.8,4.6-4.4,4.6s-1.8-.2-2.4-.6l.7-1.5c.5.3,1,.4,1.6.4,1.4,0,2.4-.9,2.4-2.5-.5.5-1.3.8-2.2.8-1.7,0-3-1.1-3-2.7s1.4-2.9,3.3-2.9,3.9,1.5,3.9,4.3ZM66.1,78.4c0-.7-.6-1.3-1.5-1.3s-1.4.5-1.4,1.3.6,1.3,1.5,1.3,1.5-.5,1.5-1.3Z"/>
      <path d="M76,75.8v1.3l-3.2,7.3h-2.2l3.1-7h-2.9v1.4h-1.8v-3h7Z"/>
      <path d="M83.8,81.7c0,1.8-1.5,2.9-3.3,2.9s-3.9-1.5-3.9-4.3,1.8-4.6,4.4-4.6,1.8.2,2.4.6l-.7,1.5c-.5-.3-1-.4-1.6-.4-1.4,0-2.4.9-2.4,2.5.5-.5,1.2-.8,2.1-.8,1.7,0,3,1.1,3,2.7ZM81.9,81.8c0-.8-.6-1.3-1.5-1.3s-1.5.5-1.5,1.3.6,1.3,1.5,1.3,1.5-.5,1.5-1.3Z"/>
    </g>
  </g>
</svg>